<?xml version="1.0" encoding="UTF-8" standalone="no"?>
<!-- Created with Inkscape (http://www.inkscape.org/) -->

<svg
   xmlns:dc="http://purl.org/dc/elements/1.1/"
   xmlns:cc="http://creativecommons.org/ns#"
   xmlns:rdf="http://www.w3.org/1999/02/22-rdf-syntax-ns#"
   xmlns:svg="http://www.w3.org/2000/svg"
   xmlns="http://www.w3.org/2000/svg"
   xmlns:sodipodi="http://sodipodi.sourceforge.net/DTD/sodipodi-0.dtd"
   xmlns:inkscape="http://www.inkscape.org/namespaces/inkscape"
   width="100mm"
   height="100mm"
   viewBox="0 0 100 100"
   version="1.1"
   id="svg6752"
   inkscape:version="0.92.4 (5da689c313, 2019-01-14)"
   sodipodi:docname="r.svg"
   inkscape:export-filename="C:\Users\Sarah\IRONHACK\my-code\PROJETS\VERDE\img\r.png"
   inkscape:export-xdpi="25.454546"
   inkscape:export-ydpi="25.454546">
  <defs
     id="defs6746" />
  <sodipodi:namedview
     id="base"
     pagecolor="#ffffff"
     bordercolor="#666666"
     borderopacity="1.0"
     inkscape:pageopacity="0.0"
     inkscape:pageshadow="2"
     inkscape:zoom="1.4"
     inkscape:cx="354.31148"
     inkscape:cy="159.82308"
     inkscape:document-units="mm"
     inkscape:current-layer="layer1"
     showgrid="false"
     fit-margin-top="0"
     fit-margin-left="0"
     fit-margin-right="0"
     fit-margin-bottom="0"
     inkscape:window-width="2256"
     inkscape:window-height="1410"
     inkscape:window-x="-11"
     inkscape:window-y="-11"
     inkscape:window-maximized="1" />
  <metadata
     id="metadata6749">
    <rdf:RDF>
      <cc:Work
         rdf:about="">
        <dc:format>image/svg+xml</dc:format>
        <dc:type
           rdf:resource="http://purl.org/dc/dcmitype/StillImage" />
        <dc:title></dc:title>
      </cc:Work>
    </rdf:RDF>
  </metadata>
  <g
     inkscape:label="Calque 1"
     inkscape:groupmode="layer"
     id="layer1"
     transform="translate(0,-197)">
    <path
       style="fill:#ff8080;fill-opacity:1;stroke:none;stroke-width:0.71428573;stroke-opacity:1"
       d="M 0.31147983,189.12968 V 0.55824933 H 188.88291 377.45434 V 189.12968 377.70111 H 188.88291 0.31147983 Z M 44.597194,344.84396 V 333.41539 H 33.168623 21.740051 v 11.42857 11.42858 H 33.168623 44.597194 Z M 311.74005,334.12968 v -22.14286 h 22.14286 22.14286 V 189.12968 66.272535 H 333.88291 311.74005 V 44.129678 21.986821 H 188.88291 66.025766 V 44.129678 66.272535 H 43.882908 21.740051 V 189.12968 311.98682 h 22.142857 22.142858 v 22.14286 22.14286 H 188.88291 311.74005 Z m 44.28572,10.71428 v -11.42857 h -11.42858 -11.42857 v 11.42857 11.42858 h 11.42857 11.42858 z M 44.597194,33.415392 V 21.986821 H 33.168623 21.740051 v 11.428571 11.428572 h 11.428572 11.428571 z m 311.428576,0 V 21.986821 h -11.42858 -11.42857 v 11.428571 11.428572 h 11.42857 11.42858 z"
       id="path6765"
       inkscape:connector-curvature="0"
       transform="matrix(0.26458333,0,0,0.26458333,0,197)" />
    <path
       style="fill:#ff8080;fill-opacity:1;stroke:none;stroke-width:0.1889881;stroke-opacity:1"
       d="m 49.389413,283.95898 c -0.31183,-0.277 -0.760267,-0.76655 -0.996526,-1.08789 -0.236263,-0.32134 -2.403116,-2.56154 -4.815232,-4.97822 l -4.385664,-4.39398 H 31.392265 23.59254 v -7.79771 -7.79772 l -4.677456,-4.60074 c -2.5726,-2.5304 -5.038555,-4.95329 -5.479899,-5.3842 l -0.802444,-0.78346 0.850666,-0.75596 c 0.467866,-0.41577 2.93382,-2.81204 5.479899,-5.32505 l 4.629234,-4.5691 v -7.76237 -7.76237 h 7.748663 7.748664 l 3.826856,-3.83864 c 2.104771,-2.11126 4.544037,-4.59415 5.420588,-5.51756 l 1.593728,-1.67891 1.524574,1.67669 c 0.838515,0.92218 3.248414,3.40507 5.355326,5.51755 l 3.830748,3.84087 h 7.744772 7.74477 v 7.73823 7.73823 l 4.041759,4.02628 c 2.222965,2.21445 4.700262,4.62159 5.505102,5.34919 l 1.46335,1.32292 -1.47489,1.41741 c -0.811189,0.77957 -3.288482,3.21775 -5.505103,5.41817 l -4.030218,4.00076 v 7.76375 7.76374 l -7.795758,0.003 -7.79576,0.003 -4.535715,4.59181 c -2.494642,2.5255 -4.875892,4.99115 -5.291666,5.47922 l -0.755952,0.88741 -0.566965,-0.50364 z m 3.057261,-9.85077 c 1.239993,-1.32797 2.69649,-2.82789 3.236658,-3.33315 0.540168,-0.50527 0.982123,-0.99407 0.982123,-1.08623 0,-0.27442 -6.521813,-6.77327 -6.797212,-6.77327 -0.177491,0 -6.805067,6.54638 -6.80951,6.72609 -1.9e-4,0.009 0.488588,0.52112 1.086263,1.13725 0.597672,0.61613 2.075402,2.16054 3.283839,3.43202 1.208439,1.27148 2.324542,2.31178 2.48023,2.31178 0.155689,0 1.297612,-1.08652 2.537609,-2.41449 z m -17.136872,-9.30277 v -3.02381 h -3.023809 -3.023809 v 3.02381 3.02381 h 3.023809 3.023809 z m 35.151784,0 v -3.02381 h -3.023809 -3.023809 v 3.02381 3.02381 h 3.023809 3.023809 z m -24.860501,-5.41703 4.288573,-4.28312 4.235773,4.23501 c 2.329675,2.32925 4.321974,4.26374 4.427334,4.29886 0.125182,0.0417 0.191561,-1.25133 0.191561,-3.73166 v -3.79551 h 3.77976 c 2.399184,0 3.779764,-0.0692 3.779764,-0.18939 0,-0.10416 -1.914941,-2.1124 -4.255421,-4.46275 l -4.255418,-4.27336 4.255418,-4.26628 c 2.34048,-2.34646 4.255421,-4.33532 4.255421,-4.41969 0,-0.0844 -1.700895,-0.15341 -3.779764,-0.15341 h -3.77976 v -3.87426 c 0,-2.13084 -0.03655,-3.87425 -0.08123,-3.87425 -0.04468,0 -2.036572,1.95802 -4.426428,4.35117 l -4.3452,4.35117 -4.355592,-4.35117 c -2.395574,-2.39315 -4.40078,-4.35117 -4.456009,-4.35117 -0.05523,0 -0.10042,1.74341 -0.10042,3.87425 v 3.87426 h -3.77976 c -2.078871,0 -3.779764,0.0687 -3.779764,0.15263 0,0.0839 0.914231,1.05705 2.031622,2.16245 1.117393,1.1054 3.041708,3.02612 4.276259,4.26827 l 2.244638,2.25845 -4.27626,4.28336 c -2.351942,2.35584 -4.276259,4.36353 -4.276259,4.46153 0,0.10566 1.538669,0.17819 3.779764,0.17819 h 3.77976 v 3.77976 c 0,2.07887 0.07494,3.77977 0.166534,3.77977 0.09159,0 2.096392,-1.9274 4.455107,-4.28311 z m -14.685256,-8.74965 c 1.793023,-1.76043 3.260043,-3.30216 3.260043,-3.42606 0,-0.25146 -6.49864,-6.78879 -6.742994,-6.78313 -0.207655,0.005 -6.864148,6.49212 -6.864148,6.68969 0,0.0852 0.266089,0.46377 0.59131,0.84129 0.879907,1.02142 6.088061,5.87468 6.306755,5.87699 0.103944,0.001 1.656009,-1.43835 3.449034,-3.19878 z m 44.072222,0.90098 c 1.30438,-1.26742 2.818085,-2.72821 3.363789,-3.2462 0.545703,-0.51799 0.992187,-1.05008 0.992187,-1.18241 0,-0.13234 -0.707993,-0.83681 -1.573316,-1.56549 -0.865322,-0.72868 -2.361181,-2.17871 -3.324127,-3.22227 -0.962948,-1.04357 -1.880325,-1.89739 -2.038619,-1.89739 -0.256189,0 -6.860069,6.52283 -6.860069,6.77588 0,0.24558 6.538534,6.64227 6.789562,6.64227 0.153445,0 1.346214,-1.03698 2.650593,-2.30439 z M 35.309802,229.65366 v -3.02381 h -3.023809 -3.023809 v 3.02381 3.02381 h 3.023809 3.023809 z m 35.151784,0 v -3.02381 h -3.023809 -3.023809 v 3.02381 3.02381 h 3.023809 3.023809 z M 53.317483,228.242 c 1.841387,-1.81585 3.347972,-3.40773 3.347972,-3.53752 0,-0.12979 -1.042371,-1.25922 -2.31638,-2.50984 -1.274008,-1.25063 -2.725086,-2.76288 -3.224617,-3.36055 -0.499533,-0.59768 -1.028811,-1.08668 -1.176176,-1.08668 -0.147362,0 -0.716095,0.47761 -1.263848,1.06136 -0.547751,0.58374 -2.03771,2.13206 -3.311017,3.44069 -1.273308,1.30864 -2.315105,2.4221 -2.315105,2.47436 0,0.12766 6.681537,6.81773 6.81014,6.81884 0.05559,5.3e-4 1.607651,-1.48482 3.449031,-3.30066 z"
       id="path6767"
       inkscape:connector-curvature="0" />
    <path
       style="fill:#2c89a0;fill-opacity:1;stroke:none;stroke-width:0.71428573;stroke-opacity:1"
       d="m 243.88291,123.41539 v -11.42857 h 11.07143 11.07143 v 11.42857 11.42857 h -11.07143 -11.07143 z"
       id="path6771"
       inkscape:connector-curvature="0"
       transform="matrix(0.26458333,0,0,0.26458333,0,197)" />
    <path
       style="fill:#2c89a0;fill-opacity:1;stroke:none;stroke-width:0.71428573;stroke-opacity:1"
       d="m 111.02577,123.41539 v -11.42857 h 11.07142 11.07143 v 11.42857 11.42857 h -11.07143 -11.07142 z"
       id="path6773"
       inkscape:connector-curvature="0"
       transform="matrix(0.26458333,0,0,0.26458333,0,197)" />
    <path
       style="fill:#2c89a0;fill-opacity:1;stroke:none;stroke-width:0.71428573;stroke-opacity:1"
       d="m 111.02577,256.27254 v -11.42858 h 11.07142 11.07143 v 11.42858 11.42857 h -11.07143 -11.07142 z"
       id="path6775"
       inkscape:connector-curvature="0"
       transform="matrix(0.26458333,0,0,0.26458333,0,197)" />
    <path
       style="fill:#2c89a0;fill-opacity:1;stroke:none;stroke-width:0.71428573;stroke-opacity:1"
       d="m 243.88291,256.27254 v -11.42858 h 11.07143 11.07143 v 11.42858 11.42857 h -11.07143 -11.07143 z"
       id="path6777"
       inkscape:connector-curvature="0"
       transform="matrix(0.26458333,0,0,0.26458333,0,197)" />
    <path
       style="fill:#2c89a0;fill-opacity:1;stroke:none;stroke-width:0.71428573;stroke-opacity:1"
       d="M 0.31147983,189.12968 V 0.55824933 H 188.88291 377.45434 V 189.12968 377.70111 H 188.88291 0.31147983 Z M 44.597194,344.84396 V 333.41539 H 33.168623 21.740051 v 11.42857 11.42858 H 33.168623 44.597194 Z M 311.74005,334.12968 v -22.14286 h 22.14286 22.14286 V 189.12968 66.272535 H 333.88291 311.74005 V 44.129678 21.986821 H 188.88291 66.025766 V 44.129678 66.272535 H 43.882908 21.740051 V 189.12968 311.98682 h 22.142857 22.142858 v 22.14286 22.14286 H 188.88291 311.74005 Z m 44.28572,10.71428 v -11.42857 h -11.42858 -11.42857 v 11.42857 11.42858 h 11.42857 11.42858 z M 44.597194,33.415392 V 21.986821 H 33.168623 21.740051 v 11.428571 11.428572 h 11.428572 11.428571 z m 311.428576,0 V 21.986821 h -11.42858 -11.42857 v 11.428571 11.428572 h 11.42857 11.42858 z"
       id="path6785"
       inkscape:connector-curvature="0"
       transform="matrix(0.26458333,0,0,0.26458333,0,197)" />
  </g>
</svg>
