<?xml version="1.0" encoding="UTF-8" standalone="no"?>
<!-- Created with Inkscape (http://www.inkscape.org/) -->

<svg
   xmlns:dc="http://purl.org/dc/elements/1.1/"
   xmlns:cc="http://creativecommons.org/ns#"
   xmlns:rdf="http://www.w3.org/1999/02/22-rdf-syntax-ns#"
   xmlns:svg="http://www.w3.org/2000/svg"
   xmlns="http://www.w3.org/2000/svg"
   xmlns:sodipodi="http://sodipodi.sourceforge.net/DTD/sodipodi-0.dtd"
   xmlns:inkscape="http://www.inkscape.org/namespaces/inkscape"
   version="1.1"
   id="svg3769"
   width="100.2"
   height="100.2"
   viewBox="0 0 100.2 100.2"
   sodipodi:docname="br.svg"
   inkscape:version="0.92.4 (5da689c313, 2019-01-14)"
   inkscape:export-filename="C:\Users\Sarah\IRONHACK\my-code\PROJETS\VERDE\img\br.png"
   inkscape:export-xdpi="96"
   inkscape:export-ydpi="96">
  <metadata
     id="metadata3775">
    <rdf:RDF>
      <cc:Work
         rdf:about="">
        <dc:format>image/svg+xml</dc:format>
        <dc:type
           rdf:resource="http://purl.org/dc/dcmitype/StillImage" />
        <dc:title></dc:title>
      </cc:Work>
    </rdf:RDF>
  </metadata>
  <defs
     id="defs3773" />
  <sodipodi:namedview
     pagecolor="#ffffff"
     bordercolor="#666666"
     borderopacity="1"
     objecttolerance="10"
     gridtolerance="10"
     guidetolerance="10"
     inkscape:pageopacity="0"
     inkscape:pageshadow="2"
     inkscape:window-width="2256"
     inkscape:window-height="1410"
     id="namedview3771"
     showgrid="false"
     inkscape:zoom="3.6875"
     inkscape:cx="57.255611"
     inkscape:cy="2.9930481"
     inkscape:window-x="-11"
     inkscape:window-y="-11"
     inkscape:window-maximized="1"
     inkscape:current-layer="svg3769"
     fit-margin-top="0.1"
     fit-margin-left="0.1"
     fit-margin-right="0.1"
     fit-margin-bottom="0.1" />
  <rect
     style="fill:#48373e;stroke-width:0.19206396"
     id="rect3789"
     width="100"
     height="100"
     x="0.37118644"
     y="0.1" />
  <g
     id="g4651"
     transform="matrix(0,-0.19047003,0.19367122,0,-0.11662079,99.650851)"
     style="stroke:none;stroke-opacity:1">
    <path
       inkscape:connector-curvature="0"
       id="path3787"
       d="M 37.71525,296.23828 C 12.70861,271.18217 4.63051,261.76362 4.63051,257.66356 c 0,-4.10743 8.11012,-13.522 33.40176,-38.77415 l 33.40176,-33.3496 0.76773,27.95212 c 0.67583,24.60601 1.36454,28.91195 5.75325,35.96998 l 4.98553,8.01784 -4.94726,9.33809 c -4.11511,7.76741 -5.13615,13.815 -6.07027,35.95435 L 70.8,329.38845 Z"
       style="fill:#87decd;fill-opacity:1;stroke:none;stroke-width:2.16949153;stroke-opacity:1" />
    <path
       inkscape:connector-curvature="0"
       id="path3791"
       d="m 74.630508,109.52675 c 0,-35.249898 -0.352041,-34.896242 34.736832,-34.896242 h 26.05886 l -9.98054,12.253409 c -5.48929,6.739375 -11.0624,14.627853 -12.38469,17.529943 -1.32228,2.9021 -5.87278,7.0506 -10.11222,9.21889 -4.239439,2.16829 -12.34536,8.03058 -18.013157,13.02731 l -10.305085,9.08497 z"
       style="fill:#00ffcc;stroke:none;stroke-width:2.16949153;stroke-opacity:1" />
    <path
       inkscape:connector-curvature="0"
       id="path4598"
       d="M 39.444335,296.54325 C 23.194314,279.92355 8.8196428,264.30912 7.5006243,261.84451 4.2448586,255.76105 10.603209,247.46942 43.477307,214.92898 l 25.930812,-25.66762 1.417976,16.77461 c 0.779884,9.22604 1.417973,20.5713 1.417973,25.21169 0,4.64038 2.012936,12.38274 4.473192,17.20524 l 4.473192,8.76818 -4.467382,11.21319 c -2.918602,7.32573 -5.033496,19.37998 -6.100311,34.7699 l -1.632928,23.5567 z"
       style="fill:#afe9dd;fill-opacity:1;stroke:none;stroke-width:2.16949153;stroke-opacity:1" />
    <path
       inkscape:connector-curvature="0"
       id="path4600"
       d="m 76.583051,107.71557 c 0,-15.819512 0.920265,-24.836324 2.796731,-27.402545 2.295227,-3.138909 7.405749,-4.051751 28.499788,-5.09063 21.7985,-1.073575 25.41085,-0.800969 23.77954,1.794527 -5.97316,9.503581 -25.49422,34.494938 -26.94442,34.494938 -0.93946,0 -6.433066,3.7142 -12.20801,8.25378 -17.016064,13.37602 -15.923629,14.20271 -15.923629,-12.05007 z"
       style="fill:#afe9dd;fill-opacity:1;stroke:none;stroke-width:2.16949153;stroke-opacity:1" />
    <path
       inkscape:connector-curvature="0"
       id="path4602"
       d="m 248.05556,77.593489 c -8.69205,-4.608633 -12.45371,-5.132472 -36.85592,-5.132472 h -27.1759 l 34.66101,-34.711864 c 26.46974,-26.50859 35.95478,-34.7118649 40.13559,-34.7118649 4.18081,0 13.66584,8.2032749 40.13559,34.7118649 l 34.66101,34.711864 h -27.26791 c -24.7764,0 -28.24309,0.494744 -37.94067,5.414649 -5.87002,2.978057 -10.67277,5.28767 -10.67277,5.132471 0,-0.155206 -4.35601,-2.591788 -9.68003,-5.414648 z"
       style="fill:#afe9dd;fill-opacity:1;stroke:none;stroke-width:2.16949153;stroke-opacity:1" />
    <path
       inkscape:connector-curvature="0"
       id="path4604"
       d="m 173.33994,150.77758 -32.27361,-32.3275 4.78745,-6.72334 4.78744,-6.72335 h 41.7427 c 32.59923,0 42.66515,0.67366 45.95397,3.07544 3.64734,2.66361 4.31056,6.33153 4.95282,27.39111 l 0.74155,24.31567 -11.5149,11.65974 c -9.62281,9.74385 -12.77923,11.65973 -19.20936,11.65973 -7.02478,0 -10.50334,-2.81357 -39.96806,-32.3275 z"
       style="fill:#afe9dd;fill-opacity:1;stroke:none;stroke-width:2.16949153;stroke-opacity:1" />
    <path
       inkscape:connector-curvature="0"
       id="path4606"
       d="m 109.12542,237.34237 c -4.03332,-4.03332 -4.33898,-7.23163 -4.33898,-45.40186 v -41.06287 l 5.7163,-4.49645 c 3.14397,-2.47304 6.81762,-4.49644 8.16366,-4.49644 1.34604,0 16.34659,13.92407 33.33454,30.94239 29.49588,29.5486 30.8872,31.33575 30.8872,39.67478 0,7.55547 -1.39892,10.11026 -10.37961,18.95591 l -10.3796,10.22353 h -24.33226 c -21.43961,0 -24.84809,-0.51583 -28.67125,-4.33899 z"
       style="fill:#afe9dd;fill-opacity:1;stroke:none;stroke-width:2.16949153;stroke-opacity:1" />
    <path
       inkscape:connector-curvature="0"
       id="path4608"
       d="M 285.3225,171.64703 274.00678,160.18898 V 137.4179 c 0,-34.21762 -2.78429,-32.41451 50.05321,-32.41451 h 43.2987 l 4.28523,7.04649 4.28522,7.04649 -31.951,32.00436 c -29.15577,29.20445 -32.62416,32.00435 -39.64546,32.00435 -6.41333,0 -9.57853,-1.90776 -19.01018,-11.45805 z"
       style="fill:#afe9dd;fill-opacity:1;stroke:none;stroke-width:2.16949153;stroke-opacity:1" />
    <path
       inkscape:connector-curvature="0"
       id="path4610"
       d="m 432.26287,127.5984 c -4.11204,-4.27783 -11.65844,-10.24748 -16.76979,-13.26589 -5.11134,-3.01841 -10.82934,-8.45828 -12.70665,-12.08861 -1.87732,-3.63032 -7.83568,-11.328466 -13.24081,-17.106988 l -9.82751,-10.506404 26.87315,0.03322 c 14.78023,0.01827 27.94733,0.750475 29.26023,1.627119 5.60447,3.742204 7.37563,12.165814 7.37563,35.078393 0,13.20387 -0.78476,24.00703 -1.74391,24.00703 -0.95915,0 -5.1083,-3.50004 -9.22034,-7.77787 z"
       style="fill:#afe9dd;fill-opacity:1;stroke:none;stroke-width:2.16949153;stroke-opacity:1" />
    <path
       inkscape:connector-curvature="0"
       id="path4612"
       d="m 344.97607,231.30175 c -8.73271,-8.86602 -10.22353,-11.63827 -10.22353,-19.01111 0,-8.21515 1.49259,-10.12144 30.9424,-39.5187 17.01832,-16.98796 31.75575,-30.88719 32.74984,-30.88719 0.99409,0 4.6429,2.01902 8.10845,4.48671 l 6.30101,4.48671 v 41.07261 c 0,52.09103 1.56027,49.75058 -33.1663,49.75058 H 355.1996 Z"
       style="fill:#afe9dd;fill-opacity:1;stroke:none;stroke-width:2.16949153;stroke-opacity:1" />
    <path
       inkscape:connector-curvature="0"
       id="path4614"
       d="m 246.50706,313.22778 c -10.13003,-9.74401 -12.19942,-10.80066 -21.15254,-10.80066 -9.60371,0 -9.92401,-0.21231 -9.92401,-6.57816 0,-9.85949 -4.97314,-19.55102 -14.94778,-29.12988 l -8.9443,-8.5894 9.65311,-9.85128 c 10.36475,-10.57754 14.23897,-18.3138 14.23897,-28.43319 0,-6.11242 0.39591,-6.36724 9.89258,-6.36724 8.93267,0 11.03779,-1.0831 21.69491,-11.16216 l 11.80234,-11.16216 11.80233,11.16216 c 10.55523,9.98269 12.81849,11.16216 21.4189,11.16216 h 9.61655 l 1.06336,11.06659 c 0.94267,9.81051 2.32594,12.32917 12.18717,22.1904 l 11.1238,11.1238 -11.12872,11.26869 c -9.82438,9.94796 -11.25276,12.55975 -12.18716,22.28418 l -1.05845,11.01549 h -9.61655 c -8.56426,0 -10.87162,1.18699 -21.08615,10.84746 -6.30827,5.9661 -11.86339,10.82639 -12.3447,10.80065 -0.48132,-0.0257 -5.92797,-4.90709 -12.10366,-10.84745 z"
       style="fill:#afe9dd;fill-opacity:1;stroke:none;stroke-width:2.16949153;stroke-opacity:1" />
    <path
       inkscape:connector-curvature="0"
       id="path4616"
       d="m 110.50274,369.52389 -5.7163,-4.49644 v -41.06288 c 0,-52.07982 -1.55959,-49.74084 33.1663,-49.74084 h 24.48834 l 10.22353,10.3796 c 8.7327,8.86603 10.22353,11.63828 10.22353,19.01112 0,8.21514 -1.4926,10.12143 -30.9424,39.5187 -17.01832,16.98795 -32.01886,30.88719 -33.33455,30.88719 -1.31568,0 -4.96448,-2.0234 -8.10845,-4.49645 z"
       style="fill:#afe9dd;fill-opacity:1;stroke:none;stroke-width:2.16949153;stroke-opacity:1" />
    <path
       inkscape:connector-curvature="0"
       id="path4618"
       d="m 69.593201,433.01695 c -3.860264,-3.86026 -4.338983,-7.23163 -4.338983,-30.55726 v -26.21827 l 10.305085,9.08496 c 5.667797,4.99673 13.773718,10.85902 18.013156,13.02731 4.23944,2.1683 8.789941,6.3168 10.112221,9.21889 1.32229,2.9021 6.8954,10.79057 12.38469,17.52995 l 9.98054,12.25341 H 99.991049 c -23.166209,0 -26.540512,-0.48165 -30.397848,-4.33899 z"
       style="fill:#afe9dd;fill-opacity:1;stroke:none;stroke-width:2.16949153;stroke-opacity:1" />
    <path
       inkscape:connector-curvature="0"
       id="path4620"
       d="M 148.99601,408.31631 C 139.9781,398.31012 139.67366,398.85 173.36458,365.10282 202.80571,335.61253 206.28348,332.8 213.308,332.8 c 6.43013,0 9.58655,1.91589 19.20936,11.65974 l 11.5149,11.65973 -0.74155,24.06485 c -1.02809,33.36343 1.58481,31.63653 -49.13039,32.47097 -40.11315,0.65999 -40.71081,0.60257 -45.16431,-4.33898 z"
       style="fill:#afe9dd;fill-opacity:1;stroke:none;stroke-width:2.16949153;stroke-opacity:1" />
    <path
       inkscape:connector-curvature="0"
       id="path4622"
       d="m 218.68475,478.15593 -34.66101,-34.71186 h 27.26791 c 24.36422,0 28.34666,-0.54614 37.3983,-5.12866 l 10.13039,-5.12866 10.13039,5.12866 c 9.05164,4.58252 13.03408,5.12866 37.3983,5.12866 h 27.26791 l -34.66101,34.71186 c -26.46975,26.50859 -35.95478,34.71187 -40.13559,34.71187 -4.18081,0 -13.66585,-8.20328 -40.13559,-34.71187 z"
       style="fill:#afe9dd;fill-opacity:1;stroke:none;stroke-width:2.16949153;stroke-opacity:1" />
    <path
       inkscape:connector-curvature="0"
       id="path4624"
       d="m 283.36894,410.91147 c -7.63242,-3.1153 -9.36216,-9.21716 -9.36216,-33.02601 v -22.45402 l 11.45805,-11.31572 c 18.48596,-18.25632 19.656,-17.84132 58.47597,20.74103 l 32.25418,32.05676 -5.07636,7.53646 -5.07635,7.53647 -38.9669,0.42978 c -21.43179,0.23638 -41.09969,-0.44076 -43.70643,-1.50475 z"
       style="fill:#afe9dd;fill-opacity:1;stroke:none;stroke-width:2.16949153;stroke-opacity:1" />
    <path
       inkscape:connector-curvature="0"
       id="path4626"
       d="m 365.63973,343.07794 c -29.49587,-29.54859 -30.88719,-31.33575 -30.88719,-39.67477 0,-7.55547 1.39892,-10.11027 10.37961,-18.95591 l 10.3796,-10.22353 h 24.33226 c 34.54499,0 33.01023,-2.31263 33.01023,49.74084 v 41.06288 l -5.71631,4.49644 c -3.14396,2.47305 -6.81761,4.49645 -8.16365,4.49645 -1.34604,0 -16.34659,-13.92408 -33.33455,-30.9424 z"
       style="fill:#afe9dd;fill-opacity:1;stroke:none;stroke-width:2.16949153;stroke-opacity:1" />
    <path
       inkscape:connector-curvature="0"
       id="path4628"
       d="m 389.38045,430.96949 c 5.49462,-5.6678 11.52675,-13.36594 13.40474,-17.10699 1.878,-3.74105 7.59655,-9.27151 12.70789,-12.28992 5.11135,-3.01841 12.65775,-8.98806 16.76979,-13.26589 4.11204,-4.27783 8.26119,-7.77788 9.22034,-7.77788 0.95915,0 1.74391,10.80317 1.74391,24.00703 0,22.91258 -1.77116,31.33619 -7.37563,35.0784 -1.3129,0.87664 -14.55377,1.60884 -29.42417,1.62711 l -27.03709,0.0332 z"
       style="fill:#afe9dd;fill-opacity:1;stroke:none;stroke-width:2.16949153;stroke-opacity:1" />
    <path
       inkscape:connector-curvature="0"
       id="path4630"
       d="m 445.39661,310.64325 c 0,-24.23738 -2.79015,-39.57792 -8.58276,-47.18886 -3.97847,-5.22734 -3.97839,-5.47215 0.004,-11.0643 5.95977,-8.36971 8.46632,-22.03385 8.52615,-46.47909 l 0.053,-21.66867 33.62712,33.57462 c 28.57561,28.531 33.62712,34.56021 33.62712,40.13559 0,5.57538 -5.05151,11.6046 -33.62712,40.1356 L 445.397,331.66275 Z"
       style="fill:#afe9dd;fill-opacity:1;stroke:none;stroke-width:2.16949153;stroke-opacity:1" />
  </g>
</svg>
