<?xml version="1.0" encoding="UTF-8" standalone="no"?>
<!-- Created with Inkscape (http://www.inkscape.org/) -->

<svg
   xmlns:dc="http://purl.org/dc/elements/1.1/"
   xmlns:cc="http://creativecommons.org/ns#"
   xmlns:rdf="http://www.w3.org/1999/02/22-rdf-syntax-ns#"
   xmlns:svg="http://www.w3.org/2000/svg"
   xmlns="http://www.w3.org/2000/svg"
   xmlns:sodipodi="http://sodipodi.sourceforge.net/DTD/sodipodi-0.dtd"
   xmlns:inkscape="http://www.inkscape.org/namespaces/inkscape"
   width="100mm"
   height="100mm"
   viewBox="0 0 100 100"
   version="1.1"
   id="svg6931"
   inkscape:version="0.92.4 (5da689c313, 2019-01-14)"
   sodipodi:docname="dkb.svg"
   inkscape:export-filename="C:\Users\Sarah\IRONHACK\my-code\PROJETS\VERDE\img\dkb.png"
   inkscape:export-xdpi="25"
   inkscape:export-ydpi="25">
  <defs
     id="defs6925" />
  <sodipodi:namedview
     id="base"
     pagecolor="#ffffff"
     bordercolor="#666666"
     borderopacity="1.0"
     inkscape:pageopacity="0.0"
     inkscape:pageshadow="2"
     inkscape:zoom="0.98994949"
     inkscape:cx="242.28013"
     inkscape:cy="41.509959"
     inkscape:document-units="mm"
     inkscape:current-layer="layer1"
     showgrid="false"
     fit-margin-top="0"
     fit-margin-left="0"
     fit-margin-right="0"
     fit-margin-bottom="0"
     inkscape:window-width="2256"
     inkscape:window-height="1410"
     inkscape:window-x="-11"
     inkscape:window-y="-11"
     inkscape:window-maximized="1" />
  <metadata
     id="metadata6928">
    <rdf:RDF>
      <cc:Work
         rdf:about="">
        <dc:format>image/svg+xml</dc:format>
        <dc:type
           rdf:resource="http://purl.org/dc/dcmitype/StillImage" />
        <dc:title></dc:title>
      </cc:Work>
    </rdf:RDF>
  </metadata>
  <g
     inkscape:label="Calque 1"
     inkscape:groupmode="layer"
     id="layer1"
     transform="translate(-92.528572,-131.6857)">
    <path
       style="fill:#afdde9;fill-opacity:1;stroke:none;stroke-width:0.26726952;stroke-opacity:1"
       d="m 92.528572,181.83994 v -49.84577 h 49.845768 49.84577 v 49.84577 49.84576 H 142.37434 92.528572 Z m 47.039438,41.1595 v -3.0736 h -17.63979 -17.63979 v -17.63978 -17.63979 h -3.0736 -3.073598 v 20.71338 20.71339 h 20.713388 20.71339 z m 47.03944,-17.63979 v -20.71338 h -2.93997 -2.93996 v 17.63979 17.63978 h -17.77343 -17.77342 v 3.0736 3.0736 h 20.71339 20.71339 z m -58.70806,8.35218 c -0.29506,-0.33075 -0.85857,-0.96217 -1.25225,-1.40317 -0.39368,-0.44099 -0.78269,-1.01228 -0.86447,-1.26953 -0.0818,-0.25725 -0.26086,-0.46772 -0.39796,-0.46772 -0.13709,0 -0.24925,-0.11498 -0.24925,-0.25551 0,-0.14053 -0.33718,-0.83209 -0.74927,-1.5368 -0.7308,-1.2497 -1.32494,-2.92509 -1.94492,-5.48432 -0.2833,-1.16946 -0.37803,-1.27469 -1.27814,-1.41996 -3.02166,-0.48763 -7.35483,-2.60308 -9.79205,-4.78045 -0.588,-0.5253 -1.15929,-0.95519 -1.26953,-0.95531 -0.11025,-1.1e-4 -0.20046,4.08902 -0.20046,9.08696 v 9.08716 h 9.26739 9.26739 z m 19.57444,-0.065 c 6.2187,-2.25561 9.99968,-7.87503 10.00092,-14.86372 l 2.7e-4,-1.76569 2.73951,-0.15813 c 5.2073,-0.3006 8.90116,-2.1454 11.80898,-5.89769 4.38302,-5.65592 4.04924,-13.87736 -0.77496,-19.08807 -3.1006,-3.34906 -6.56462,-4.86706 -11.10641,-4.86706 h -2.66707 v -1.98705 c 0,-3.20422 -1.22034,-7.71918 -2.46101,-9.10523 -0.18993,-0.21218 -0.70614,-0.85557 -1.14713,-1.42977 -0.7557,-0.98395 -3.27097,-3.01723 -4.51408,-3.64906 -2.24445,-1.14077 -3.23792,-1.33327 -6.84488,-1.32626 -3.84819,0.007 -4.68963,0.18978 -7.41051,1.60556 -1.56439,0.81401 -4.27452,3.33057 -5.23621,4.86222 -1.45823,2.32245 -2.07209,4.46845 -2.24139,7.83575 l -0.16059,3.19384 h -2.71791 c -2.97174,0 -4.3657,0.33085 -6.90559,1.639 -4.7892,2.46665 -7.56569,6.79844 -7.85751,12.25901 -0.27077,5.06683 1.08346,8.52892 4.66118,11.91633 2.71646,2.57195 6.76394,4.11985 10.77273,4.11985 h 2.04694 l 0.17044,3.00678 c 0.26875,4.74084 1.32786,7.23954 4.34927,10.26096 1.83845,1.83843 2.573,2.30113 5.3174,3.34943 1.63816,0.62574 2.27326,0.71716 5.1057,0.73499 2.81019,0.0177 3.47596,-0.0671 5.07191,-0.64599 z m 27.64103,-8.42082 c 0,-7.20497 -0.0709,-9.08716 -0.34209,-9.08716 -0.18816,0 -0.73236,0.41375 -1.20935,0.91945 -1.8378,1.94842 -6.75307,4.35429 -9.87434,4.83318 -1.007,0.1545 -1.13628,0.25502 -1.13934,0.88578 -0.004,0.88997 -0.83229,3.55971 -1.6387,5.28385 -0.67213,1.43705 -2.08975,3.66173 -2.42279,3.80209 -0.11625,0.049 -0.21647,0.22941 -0.22269,0.40091 -0.006,0.17149 -0.36704,0.60685 -0.80181,0.96745 -0.43477,0.3606 -0.79049,0.75148 -0.79049,0.86862 0,0.11715 4.14936,0.21299 9.2208,0.21299 h 9.2208 z m -70.82643,-43.8322 v -17.63979 h 17.63979 17.63979 v -3.0736 -3.0736 H 118.85462 98.141232 v 20.71339 20.71339 h 3.073598 3.0736 z m 82.31902,-3.0736 v -20.71339 h -20.71339 -20.71339 v 3.0736 3.0736 h 17.77342 17.77343 v 17.63979 17.63979 h 2.93996 2.93997 z m -75.80156,8.87867 c 2.18584,-2.35681 5.94158,-4.34279 9.94743,-5.26004 l 1.36415,-0.31236 0.43992,-1.58229 c 0.24195,-0.87025 0.43991,-1.70938 0.43991,-1.86473 0,-0.71785 2.41111,-5.26882 3.3404,-6.30498 0.30667,-0.34194 1.1646,-1.37354 1.70363,-2.04849 0.34536,-0.43245 -0.1743,-0.45931 -8.88671,-0.45931 h -9.25353 v 9.2208 c 0,5.07144 0.0764,9.2208 0.16981,9.2208 0.0934,0 0.42414,-0.27423 0.73499,-0.6094 z m 64.30897,-8.6114 v -9.2208 h -9.2208 c -5.07144,0 -9.2208,0.0696 -9.2208,0.15474 0,0.0851 0.57371,0.8368 1.27491,1.67043 1.33034,1.58161 2.46686,3.13351 2.46686,3.36846 0,0.0754 0.28262,0.77186 0.62805,1.54762 0.89799,2.01671 1.51296,3.96942 1.51143,4.79921 -0.001,0.65796 0.12334,0.74111 1.53548,1.02506 3.68244,0.74046 7.66864,2.79247 9.80534,5.04758 0.43175,0.45567 0.88276,0.8285 1.00226,0.8285 0.1195,0 0.21727,-4.14936 0.21727,-9.2208 z"
       id="path6944"
       inkscape:connector-curvature="0" />
    <path
       style="fill:#ff5555;fill-opacity:1;stroke:none;stroke-width:1.01015258;stroke-opacity:1"
       d="m 114.69359,220.77428 c -8.92519,-2.29155 -17.512641,-9.38868 -21.945897,-18.13729 -3.727296,-7.35547 -3.727446,-19.34584 -3.35e-4,-26.96378 6.748737,-13.79392 21.196662,-21.60149 34.781342,-18.79562 21.75145,4.49269 33.37655,26.98277 23.76591,45.97785 -3.24487,6.41338 -9.29881,12.54477 -15.52006,15.71861 -4.55966,2.32617 -15.95725,3.51574 -21.08096,2.20023 z m 13.22555,-20.95277 c 4.68723,-2.23518 7.14517,-6.9423 6.42578,-12.30578 -0.57028,-4.25172 -2.09077,-6.40362 -6.71869,-9.5087 -3.28503,-2.20408 -6.39064,-2.23928 -10.85041,-0.12298 -8.16662,3.87531 -8.85557,16.87577 -1.14349,21.57782 4.02743,2.45553 7.66822,2.56209 12.28681,0.35964 z"
       id="path6946"
       inkscape:connector-curvature="0"
       transform="matrix(0.26458333,0,0,0.26458333,92.528572,131.6857)" />
    <path
       style="fill:#ff5555;fill-opacity:1;stroke:none;stroke-width:1.01015258;stroke-opacity:1"
       d="m 178.62944,152.95028 c -10.97696,-4.57034 -17.12768,-11.00131 -20.83903,-21.78854 -2.48744,-7.22985 -2.48744,-10.71475 0,-17.9446 3.4318,-9.97472 8.69443,-15.937244 18.1834,-20.601699 4.58218,-2.252447 6.96888,-2.750881 13.17229,-2.750881 6.39072,0 8.50001,0.467663 13.48057,2.988857 6.39812,3.238773 13.92179,10.798803 16.55252,16.632513 2.23445,4.95496 2.23445,20.45206 0,25.40702 -2.65707,5.89213 -10.14859,13.39538 -16.55252,16.57843 -7.80817,3.88103 -16.88439,4.44038 -23.99723,1.4789 z m 19.16651,-22.24087 c 2.52947,-2.6402 2.96691,-3.89637 2.96691,-8.51997 0,-4.62359 -0.43744,-5.87976 -2.96691,-8.51997 -2.63054,-2.74569 -3.61904,-3.09678 -8.71897,-3.09678 -5.13541,0 -6.0898,0.34544 -8.90239,3.22222 -4.56673,4.67097 -4.56673,12.1181 0,16.78906 2.81259,2.87679 3.76698,3.22223 8.90239,3.22223 5.09993,0 6.08843,-0.3511 8.71897,-3.09679 z"
       id="path6948"
       inkscape:connector-curvature="0"
       transform="matrix(0.26458333,0,0,0.26458333,92.528572,131.6857)" />
    <path
       style="fill:#ff5555;fill-opacity:1;stroke:none;stroke-width:1.01015258;stroke-opacity:1"
       d="m 248.7451,220.7971 c -8.39717,-1.8367 -17.70416,-9.23663 -22.38155,-17.79545 -1.83301,-3.35408 -2.22166,-5.75694 -2.28742,-14.14214 -0.0782,-9.96836 -0.031,-10.17477 3.57789,-15.65736 6.18967,-9.40327 12.64209,-14.08462 22.35378,-16.21809 12.88435,-2.83046 25.34898,3.12036 33.97053,16.21809 3.60891,5.48259 3.65607,5.689 3.57789,15.65736 -0.0899,11.45717 -1.44679,15.03067 -8.46112,22.28256 -7.87462,8.1413 -19.85135,11.95137 -30.35,9.65503 z m 12.97317,-21.24997 c 8.67326,-4.42476 8.35505,-17.4465 -0.52988,-21.68342 -4.43878,-2.11671 -6.63903,-2.05657 -11.27431,0.30817 -4.33433,2.21121 -6.2356,5.58941 -6.18394,10.9877 0.0472,4.93688 1.96979,8.1975 6.1453,10.42234 4.42305,2.35675 7.17086,2.34867 11.84283,-0.0348 z"
       id="path6952"
       inkscape:connector-curvature="0"
       transform="matrix(0.26458333,0,0,0.26458333,92.528572,131.6857)" />
    <path
       style="fill:#afdde9;fill-opacity:1;stroke:none;stroke-width:1.01015258;stroke-opacity:1"
       d="m 178.03443,188.85951 v -10.6066 h 10.6066 10.6066 v 10.6066 10.6066 h -10.6066 -10.6066 z"
       id="path6954"
       inkscape:connector-curvature="0"
       transform="matrix(0.26458333,0,0,0.26458333,92.528572,131.6857)" />
    <path
       style="fill:#ff5555;fill-opacity:1;stroke:none;stroke-width:1.01015258;stroke-opacity:1"
       d="m 180.02608,286.99093 c -7.10525,-2.30604 -18.15409,-10.48756 -18.15409,-13.44286 0,-0.37775 -0.60382,-1.40446 -1.34181,-2.28159 -1.83931,-2.18607 -4.71911,-11.72973 -4.71911,-15.63914 0,-3.38143 2.50542,-11.13749 5.26942,-16.3126 2.39534,-4.48487 9.87684,-11.02031 15.42513,-13.47458 7.22303,-3.1951 19.07737,-2.99767 25.84232,0.43039 7.24707,3.67237 12.58439,8.89148 15.80997,15.45979 2.4376,4.96376 2.79586,6.85062 2.71594,14.30431 -0.0591,5.51005 -0.67094,9.88044 -1.70781,12.19844 -2.07621,4.6415 -10.17468,13.65542 -14.2414,15.85122 -7.77463,4.19787 -17.44258,5.32649 -24.89856,2.90662 z m 15.79985,-20.9251 c 6.45631,-3.99022 7.15747,-14.62919 1.28954,-19.56673 -2.27313,-1.91271 -4.22491,-2.58628 -7.49426,-2.58628 -8.3761,0 -12.62428,4.15111 -12.56481,12.27769 0.0708,9.67525 10.34596,15.08137 18.76953,9.87532 z"
       id="path6956"
       inkscape:connector-curvature="0"
       transform="matrix(0.26458333,0,0,0.26458333,92.528572,131.6857)" />
    <path
       style="fill:#ff8080;fill-opacity:1;stroke:none;stroke-width:1.01015258;stroke-opacity:1"
       d="m 109.57545,218.13527 c -6.72362,-3.42025 -13.41271,-10.06659 -16.441958,-16.33688 -3.203406,-6.63078 -3.306687,-17.95218 -0.226014,-24.77507 3.205628,-7.09963 10.375722,-14.20365 17.614572,-17.45225 5.37212,-2.41087 7.11291,-2.71555 13.07703,-2.28882 12.65584,0.90552 22.47715,7.83701 27.90584,19.69482 2.1948,4.79407 2.47134,6.56323 2.07165,13.25321 -0.55356,9.26567 -2.96487,14.53967 -9.7268,21.27443 -6.40266,6.37692 -10.93495,8.31297 -20.77235,8.87329 -7.38284,0.42051 -8.69496,0.20256 -13.50197,-2.24273 z m 18.95035,-18.15831 c 4.33715,-2.24283 6.07207,-5.37319 6.07207,-10.95598 0,-4.42391 -0.42661,-5.37144 -4.04944,-8.99428 -3.86339,-3.86339 -4.28261,-4.02704 -9.12434,-3.56181 -6.13394,0.5894 -9.61563,3.4584 -11.16082,9.19679 -1.37889,5.1208 0.85507,11.54776 4.8816,14.04407 3.45766,2.14364 9.52235,2.26656 13.38093,0.27121 z"
       id="path6958"
       inkscape:connector-curvature="0"
       transform="matrix(0.26458333,0,0,0.26458333,92.528572,131.6857)" />
    <path
       style="fill:#ff8080;fill-opacity:1;stroke:none;stroke-width:1.01015258;stroke-opacity:1"
       d="m 176.5192,151.11065 c -25.70194,-12.28502 -25.75136,-45.68954 -0.0856,-57.831621 12.11683,-5.732278 24.61742,-3.222468 34.83362,6.993731 7.66052,7.66051 8.64778,10.15628 8.66968,21.91668 0.0172,9.21273 -0.22499,10.51627 -2.75213,14.8152 -8.6469,14.70927 -26.46943,20.89151 -40.66561,14.10601 z m 21.40941,-19.74237 c 2.57886,-2.21825 2.83425,-3.04533 2.83425,-9.17884 0,-6.1335 -0.25539,-6.96059 -2.83425,-9.17883 -2.35313,-2.02408 -3.92403,-2.43792 -9.25412,-2.43792 -5.90695,0 -6.62559,0.24449 -8.99484,3.06019 -4.626,5.49768 -4.38191,12.56252 0.61845,17.90047 1.76951,1.88898 3.19881,2.27285 8.46268,2.27285 5.23888,0 6.82346,-0.42138 9.16783,-2.43792 z"
       id="path6960"
       inkscape:connector-curvature="0"
       transform="matrix(0.26458333,0,0,0.26458333,92.528572,131.6857)" />
    <path
       style="fill:#ff8080;fill-opacity:1;stroke:none;stroke-width:1.01015258;stroke-opacity:1"
       d="m 246.21972,219.44538 c -7.28178,-2.58172 -15.98217,-10.44836 -19.30377,-17.45389 -1.93831,-4.08804 -2.39665,-6.70567 -2.40464,-13.73298 -0.01,-8.36589 0.13193,-8.90161 3.88186,-14.70349 7.01443,-10.85268 16.72102,-16.51532 28.3097,-16.51532 10.68595,0 22.80615,8.24916 28.51138,19.4052 2.24554,4.39095 2.59718,15.36394 0.7315,22.82643 -1.67491,6.6994 -11.21804,16.20062 -19.30833,19.22354 -6.3332,2.36638 -15.25301,2.78163 -20.4177,0.95051 z m 16.77067,-20.26204 c 7.20836,-4.8367 7.20836,-15.7902 0,-20.64097 -5.70723,-3.8406 -13.91673,-2.46922 -17.7195,2.95999 -1.81162,2.58645 -2.11348,11.03239 -0.50193,14.0436 1.62423,3.0349 7.06644,5.93244 11.15037,5.93668 2.11585,0.002 5.07518,-0.96009 7.07106,-2.2993 z"
       id="path6962"
       inkscape:connector-curvature="0"
       transform="matrix(0.26458333,0,0,0.26458333,92.528572,131.6857)" />
    <path
       style="fill:#ff8080;fill-opacity:1;stroke:none;stroke-width:1.01015258;stroke-opacity:1"
       d="m 178.30108,285.52668 c -14.0491,-5.62363 -22.75993,-19.0396 -21.15589,-32.58322 1.29032,-10.89469 9.49882,-21.92191 19.70163,-26.46698 6.69663,-2.98316 18.29949,-2.94418 24.55175,0.0825 7.3251,3.54603 12.62553,8.76641 16.13135,15.88774 3.03191,6.15867 3.18506,7.00778 2.69137,14.92111 -0.31841,5.10364 -1.22044,9.73858 -2.30254,11.83112 -3.0667,5.93036 -12.5784,14.58206 -18.09345,16.45754 -6.30494,2.1441 -15.98943,2.0857 -21.52422,-0.12979 z m 19.53234,-20.80471 c 2.92443,-2.92444 3.43452,-4.13449 3.43452,-8.14763 0,-8.89797 -3.65267,-12.60548 -12.45208,-12.63905 -5.17412,-0.0198 -6.24323,0.33469 -8.83883,2.93029 -2.57006,2.57006 -2.95276,3.69598 -2.95276,8.68731 0,5.17478 0.33526,6.06981 3.43452,9.16908 3.02528,3.02527 4.06042,3.43451 8.68731,3.43451 4.6269,0 5.66204,-0.40924 8.68732,-3.43451 z"
       id="path6964"
       inkscape:connector-curvature="0"
       transform="matrix(0.26458333,0,0,0.26458333,92.528572,131.6857)"
       inkscape:export-xdpi="25.33"
       inkscape:export-ydpi="25.33" />
  </g>
</svg>
