<?xml version="1.0" encoding="UTF-8" standalone="no"?>
<!-- Created with Inkscape (http://www.inkscape.org/) -->

<svg
   xmlns:osb="http://www.openswatchbook.org/uri/2009/osb"
   xmlns:dc="http://purl.org/dc/elements/1.1/"
   xmlns:cc="http://creativecommons.org/ns#"
   xmlns:rdf="http://www.w3.org/1999/02/22-rdf-syntax-ns#"
   xmlns:svg="http://www.w3.org/2000/svg"
   xmlns="http://www.w3.org/2000/svg"
   xmlns:sodipodi="http://sodipodi.sourceforge.net/DTD/sodipodi-0.dtd"
   xmlns:inkscape="http://www.inkscape.org/namespaces/inkscape"
   width="100"
   height="100"
   viewBox="0 0 26.458333 26.458333"
   version="1.1"
   id="svg3748"
   inkscape:version="0.92.4 (5da689c313, 2019-01-14)"
   sodipodi:docname="y.svg"
   inkscape:export-filename="C:\Users\Sarah\IRONHACK\my-code\PROJETS\VERDE\img\y.png"
   inkscape:export-xdpi="96"
   inkscape:export-ydpi="96">
  <defs
     id="defs3742">
    <linearGradient
       inkscape:collect="always"
       id="linearGradient6711"
       osb:paint="gradient">
      <stop
         style="stop-color:#afdde9;stop-opacity:1;"
         offset="0"
         id="stop6707" />
      <stop
         style="stop-color:#afdde9;stop-opacity:0;"
         offset="1"
         id="stop6709" />
    </linearGradient>
    <linearGradient
       id="linearGradient6693"
       osb:paint="solid">
      <stop
         style="stop-color:#afdde9;stop-opacity:1;"
         offset="0"
         id="stop6691" />
    </linearGradient>
    <linearGradient
       id="linearGradient6687"
       osb:paint="solid">
      <stop
         style="stop-color:#afdde9;stop-opacity:1;"
         offset="0"
         id="stop6685" />
    </linearGradient>
  </defs>
  <sodipodi:namedview
     id="base"
     pagecolor="#ffffff"
     bordercolor="#666666"
     borderopacity="1.0"
     inkscape:pageopacity="0.0"
     inkscape:pageshadow="2"
     inkscape:zoom="2.8"
     inkscape:cx="26.817576"
     inkscape:cy="72.230225"
     inkscape:document-units="mm"
     inkscape:current-layer="layer1"
     showgrid="false"
     units="px"
     fit-margin-top="0"
     fit-margin-left="0"
     fit-margin-right="0"
     fit-margin-bottom="0"
     inkscape:window-width="2256"
     inkscape:window-height="1410"
     inkscape:window-x="-11"
     inkscape:window-y="-11"
     inkscape:window-maximized="1" />
  <metadata
     id="metadata3745">
    <rdf:RDF>
      <cc:Work
         rdf:about="">
        <dc:format>image/svg+xml</dc:format>
        <dc:type
           rdf:resource="http://purl.org/dc/dcmitype/StillImage" />
        <dc:title></dc:title>
      </cc:Work>
    </rdf:RDF>
  </metadata>
  <g
     inkscape:label="Calque 1"
     inkscape:groupmode="layer"
     id="layer1"
     transform="translate(-27.175072,-244.08676)">
    <path
       style="fill:#ffd42a;stroke:none;stroke-width:0.04724703;stroke-opacity:1"
       d="m 27.198696,257.31592 v -13.20554 h 13.205543 13.205544 v 13.20554 13.20555 H 40.404239 27.198696 Z m 6.222603,11.58734 c -0.229272,-0.97412 -0.375225,-1.37212 -0.703423,-1.91814 -0.637096,-1.05994 -1.61351,-1.90907 -2.623115,-2.28117 -0.15062,-0.0555 -0.296571,-0.11876 -0.324335,-0.14056 -0.0632,-0.0496 -0.810029,-0.23051 -0.953518,-0.23095 l -0.106306,-3.5e-4 v 2.33873 2.33873 h 2.367859 2.36786 z m 6.250612,-2.49198 V 263.813 l -0.608587,-0.61452 c -0.334722,-0.33798 -0.627063,-0.61421 -0.649647,-0.61384 -0.02258,3.7e-4 -0.973191,0.93304 -2.112464,2.07261 l -2.071404,2.07193 0.123702,0.26148 c 0.191855,0.40555 0.337071,0.86922 0.425513,1.35866 0.04449,0.2462 0.0903,0.49547 0.101814,0.55394 l 0.02092,0.1063 h 2.385075 2.385074 z m 6.256608,2.49198 c 0.01199,-0.0585 0.03536,-0.19135 0.05193,-0.2953 0.04288,-0.26902 0.329758,-1.22508 0.474432,-1.58112 l 0.122428,-0.3013 -2.082227,-2.08222 -2.082226,-2.08223 -0.614519,0.61316 -0.61452,0.61315 v 2.61108 2.61108 h 2.361452 2.361451 z m 6.169359,-2.23243 v -2.33872 h -0.110559 c -0.142774,0 -0.831837,0.17595 -0.900149,0.22986 -0.02879,0.0227 -0.137394,0.0683 -0.241337,0.10123 -1.070171,0.33937 -2.309818,1.45579 -2.877496,2.59147 -0.08629,0.17262 -0.183855,0.3989 -0.216816,0.50285 -0.03296,0.10394 -0.07852,0.21254 -0.101237,0.24133 -0.0539,0.0683 -0.22986,0.75738 -0.22986,0.90015 v 0.11056 h 2.338726 2.338728 z m -16.674741,-3.18805 c 1.063519,-1.0648 1.933671,-1.94554 1.933671,-1.95719 0,-0.0468 -1.077298,-1.11499 -1.124542,-1.11499 -0.06037,0 -3.883642,3.8169 -3.883642,3.87716 0,0.0501 1.046706,1.12017 1.101951,1.12654 0.02139,0.002 0.909044,-0.86672 1.972562,-1.93152 z m 12.535099,1.38714 c 0.301878,-0.30188 0.548869,-0.56223 0.548869,-0.57856 0,-0.0498 -3.846887,-3.88076 -3.896924,-3.88076 -0.06177,0 -1.11126,1.04767 -1.11126,1.10932 0,0.051 3.829526,3.89887 3.880322,3.89887 0.01657,0 0.277114,-0.24699 0.578993,-0.54887 z m -14.83672,-3.46045 2.071783,-2.07218 -0.613912,-0.6209 -0.613911,-0.62089 h -2.627438 -2.627437 v 2.35917 c 0,2.20641 0.0054,2.36068 0.08268,2.38255 0.04548,0.0129 0.199619,0.0377 0.34254,0.0551 0.249249,0.0305 1.56428,0.43807 1.73609,0.53812 0.04561,0.0266 0.104273,0.0489 0.13037,0.0497 0.0261,8e-4 0.979751,-0.93104 2.119231,-2.07075 z m 17.180976,1.89135 c 0.50365,-0.18408 1.146486,-0.3734 1.393788,-0.41048 0.103943,-0.0156 0.236826,-0.0381 0.295293,-0.0501 l 0.106305,-0.0218 v -2.36145 -2.36145 h -2.61108 -2.61108 l -0.613087,0.61445 -0.613088,0.61445 2.078428,2.07904 c 1.143135,1.14346 2.099688,2.07119 2.125673,2.0616 0.02598,-0.01 0.227967,-0.0835 0.448847,-0.16422 z m -10.630581,-2.54721 v -0.93266 l -0.861779,-0.86273 -0.861779,-0.86272 h -0.933608 c -0.513485,0 -0.933607,0.0158 -0.933607,0.0352 0,0.0463 3.50878,3.55557 3.555101,3.55557 0.01962,0 0.03567,-0.4197 0.03567,-0.93266 z m 3.335099,-0.83359 c 0.97217,-0.97143 1.767579,-1.77936 1.767579,-1.79538 0,-0.016 -0.430538,-0.029 -0.956752,-0.0289 l -0.956752,1.9e-4 -0.838635,0.8417 -0.838635,0.8417 v 0.95348 c 0,0.52443 0.01252,0.95349 0.02781,0.95349 0.0153,0 0.82322,-0.79481 1.795387,-1.76625 z m -2.009033,-2.01036 c 0.284113,-0.28411 0.516569,-0.54423 0.516569,-0.57804 0,-0.0618 -1.033626,-1.126 -1.093698,-1.126 -0.04176,0 -1.126913,1.08272 -1.126913,1.12439 0,0.0609 1.062062,1.09622 1.124496,1.09622 0.03464,0 0.295435,-0.23246 0.579546,-0.51657 z m -6.440117,-1.9525 0.62515,-0.62644 -2.09501,-2.09462 -2.095009,-2.09461 -0.278937,0.14067 c -0.426244,0.21495 -0.956313,0.36141 -1.826276,0.5046 l -0.177177,0.0292 v 2.38383 2.38383 h 2.611055 2.611054 z m 4.251326,-0.23534 0.862725,-0.86178 v -0.93361 c 0,-0.5401 -0.01841,-0.93361 -0.04368,-0.93361 -0.05804,0 -3.547092,3.48765 -3.547092,3.54567 0,0.0271 0.37192,0.0451 0.932662,0.0451 h 0.932662 z m 5.965403,0.82657 c 0,-0.0463 -3.508781,-3.55557 -3.555101,-3.55557 -0.01962,0 -0.03567,0.4197 -0.03567,0.93266 v 0.93266 l 0.861781,0.86273 0.861779,0.86272 h 0.933606 c 0.513485,0 0.933609,-0.0158 0.933609,-0.0352 z m 7.323289,-2.34987 v -2.38507 l -0.106305,-0.0209 c -0.05847,-0.0115 -0.307738,-0.0573 -0.553936,-0.10181 -0.49858,-0.0901 -0.966364,-0.23788 -1.355292,-0.42816 l -0.258539,-0.1265 -2.075233,2.07413 c -1.141378,1.14077 -2.07547,2.09263 -2.075761,2.11525 -2.91e-4,0.0226 0.270552,0.31286 0.601872,0.64498 l 0.6024,0.60384 2.610398,0.005 2.610398,0.005 z m -15.284151,-0.49726 0.565749,-0.56722 -1.936436,-1.93687 c -1.065038,-1.06527 -1.960048,-1.93686 -1.988909,-1.93686 -0.02886,0 -0.199271,0.15414 -0.378687,0.34254 -0.179416,0.18839 -0.416348,0.42406 -0.526516,0.5237 -0.110168,0.0996 -0.200306,0.20585 -0.200306,0.23602 0,0.0521 3.823114,3.90592 3.874779,3.90592 0.01352,0 0.279165,-0.25525 0.590326,-0.56723 z m 9.757371,-1.36644 c 1.064803,-1.06352 1.936007,-1.94631 1.936007,-1.96176 0,-0.0445 -1.086174,-1.11275 -1.131434,-1.11275 -0.0592,0 -3.87675,3.82312 -3.87675,3.88241 0,0.0534 1.038185,1.1111 1.099614,1.1203 0.02011,0.003 0.907759,-0.86468 1.972563,-1.9282 z m -6.899187,-4.10148 v -2.61106 h -2.383833 -2.383835 l -0.02916,0.17718 c -0.144029,0.87503 -0.323448,1.51598 -0.525619,1.8777 l -0.124468,0.2227 2.09702,2.09742 2.09702,2.09741 0.626438,-0.62515 0.62644,-0.62515 z m 4.83692,1.78882 2.072566,-2.07297 -0.142609,-0.37206 c -0.202472,-0.52825 -0.42407,-1.27621 -0.460176,-1.55325 -0.01693,-0.12992 -0.04107,-0.27344 -0.05362,-0.31891 -0.02136,-0.0773 -0.175376,-0.0827 -2.382005,-0.0827 H 41.18382 v 2.62898 2.62898 l 0.602401,0.60178 c 0.33132,0.33097 0.613121,0.60432 0.626224,0.60744 0.01311,0.003 0.95648,-0.92717 2.096391,-2.0673 z m -15.210288,0.20006 c 0.920949,-0.20192 1.807427,-0.70647 2.560574,-1.45739 0.716066,-0.71395 1.179198,-1.52067 1.432871,-2.4959 0.07985,-0.30698 0.132879,-0.57806 0.11784,-0.6024 -0.0164,-0.0265 -0.962578,-0.0443 -2.363285,-0.0443 h -2.33594 v 2.33086 c 0,1.28197 0.0154,2.34626 0.03423,2.36509 0.01883,0.0188 0.0773,0.0211 0.129929,0.005 0.05263,-0.016 0.243333,-0.0615 0.423778,-0.10109 z m 22.799335,-2.23758 v -2.36236 H 49.75915 47.420424 l 3.16e-4,0.10631 c 4.23e-4,0.14349 0.181337,0.89032 0.230954,0.95352 0.0218,0.0278 0.08505,0.17371 0.140561,0.32433 0.276567,0.7504 0.888837,1.56675 1.639569,2.18607 0.299392,0.24699 0.962682,0.64491 1.295877,0.77743 0.239245,0.0951 1.174069,0.36042 1.311104,0.37204 0.04653,0.004 0.05906,-0.49629 0.05906,-2.35734 z"
       id="path4676"
       inkscape:connector-curvature="0" />
    <path
       style="fill:#d7f4ee;stroke:none;stroke-width:0.04943575;stroke-opacity:1"
       d="m 42.077439,255.67121 -0.906514,-0.8979 0.0035,-0.83546 c 0.0019,-0.4595 0.01894,-0.87405 0.03782,-0.92122 0.02724,-0.068 0.413932,0.28992 1.872415,1.73336 l 1.838087,1.81912 h -0.969394 -0.969394 z"
       id="path4678"
       inkscape:connector-curvature="0" />
    <path
       style="fill:#d7f4ee;stroke-width:0.17857143;stroke:none;stroke-opacity:1"
       d="m 33.786579,47.046816 c 0,-0.17507 12.906167,-13.079439 13.081262,-13.079439 0.07316,0 0.133024,1.54606 0.133024,3.435689 v 3.435689 l -3.167783,3.171454 -3.167782,3.171453 h -3.43936 c -1.891649,0 -3.439361,-0.06068 -3.439361,-0.134846 z"
       id="path4680"
       inkscape:connector-curvature="0"
       transform="matrix(0.26458333,0,0,0.26458333,27.175072,244.08676)" />
    <path
       style="fill:#d7f4ee;stroke-width:0.0492905;stroke:none"
       d="m 39.822285,257.8459 -0.542296,-0.56699 0.567977,-0.5906 0.567977,-0.5906 0.542328,0.56701 c 0.29828,0.31186 0.542327,0.59418 0.542327,0.62738 0,0.0798 -0.999942,1.12078 -1.076571,1.12078 -0.0327,0 -0.303479,-0.25515 -0.601742,-0.56698 z"
       id="path4682"
       inkscape:connector-curvature="0" />
    <path
       style="fill:#d7f4ee;stroke-width:0.17857143;stroke:none;stroke-opacity:1"
       d="m 40.330007,59.885812 c -5.899337,-5.900954 -6.536334,-6.593192 -6.159809,-6.693991 0.230974,-0.06183 1.754085,-0.113522 3.384691,-0.114863 l 2.964739,-0.0024 3.238157,3.258928 3.238157,3.258929 0.0025,3.4375 c 0.0014,1.890625 -0.01804,3.4375 -0.04309,3.4375 -0.02505,0 -3.006441,-2.961705 -6.62531,-6.581565 z"
       id="path4684"
       inkscape:connector-curvature="0"
       transform="matrix(0.26458333,0,0,0.26458333,27.175072,244.08676)" />
    <path
       style="fill:#afdde9;stroke-width:0.17857143"
       d=""
       id="path4686"
       inkscape:connector-curvature="0"
       transform="matrix(0.26458333,0,0,0.26458333,27.175072,244.08676)" />
    <path
       style="fill:#d7f4ee;stroke-width:0.17857143;stroke:none;stroke-opacity:1"
       d="m 53.008609,66.165597 c -0.06319,-0.06319 -0.114887,-1.609028 -0.114887,-3.4352 v -3.320313 l 3.171454,-3.167782 3.171453,-3.167782 h 3.335865 c 2.025644,0 3.379102,0.06996 3.445949,0.178119 0.06055,0.09797 -2.204801,2.517274 -5.034104,5.37624 -5.492002,5.549581 -7.790699,7.721749 -7.97573,7.536718 z"
       id="path4688"
       inkscape:connector-curvature="0"
       transform="matrix(0.26458333,0,0,0.26458333,27.175072,244.08676)" />
    <path
       style="fill:#d7f4ee;stroke:none;stroke-width:0.04837598"
       d="m 44.044248,253.72653 c -0.397942,-0.40306 -0.515241,-0.55048 -0.493298,-0.61999 0.01583,-0.0502 0.883649,-0.95405 1.92848,-2.00866 1.839963,-1.85718 1.903349,-1.9155 2.015956,-1.85464 0.06394,0.0346 0.328919,0.27835 0.588832,0.54178 l 0.472568,0.47896 -0.357761,0.38743 c -0.408101,0.44195 -3.544158,3.57276 -3.597578,3.59156 -0.01931,0.007 -0.270052,-0.2256 -0.557199,-0.51644 z"
       id="path4690"
       inkscape:connector-curvature="0" />
    <path
       style="fill:#d7f4ee;stroke:none;stroke-width:0.0487243;stroke-opacity:1"
       d="m 34.248782,252.29282 c -1.078315,-1.07928 -1.960572,-1.99497 -1.960572,-2.03488 0,-0.0944 0.978366,-1.06953 1.073117,-1.06953 0.03987,0 0.960262,0.88776 2.045319,1.97281 l 1.97283,1.97282 -0.55909,0.56055 c -0.307499,0.3083 -0.570776,0.56055 -0.58506,0.56055 -0.01428,0 -0.908227,-0.88305 -1.986544,-1.96232 z"
       id="path4692"
       inkscape:connector-curvature="0" />
    <path
       style="fill:#d7f4ee;stroke-width:0.04724703;stroke:none"
       d="m 28.741816,249.92279 c -0.01685,-0.21652 -0.03077,-1.27273 -0.03093,-2.34712 l -2.83e-4,-1.95344 2.311189,0.0163 c 1.271154,0.009 2.325769,0.0309 2.343588,0.0487 0.05337,0.0534 -0.196926,0.94329 -0.393707,1.39973 -0.695168,1.61245 -2.281092,2.86961 -4.035194,3.19868 l -0.164024,0.0308 z"
       id="path4694"
       inkscape:connector-curvature="0" />
    <path
       style="fill:#d7f4ee;stroke-width:0.17857143;stroke:none;stroke-opacity:1"
       d="m 21.591335,78.639502 c -1.051544,-1.0671 -1.911899,-2.054926 -1.911899,-2.19517 0,-0.337022 14.138955,-14.441241 14.476807,-14.441241 0.143785,0 1.139394,0.880698 2.212464,1.957106 l 1.951038,1.957106 -1.686226,1.776723 C 34.706563,69.7244 23.836938,80.460945 23.635955,80.532459 c -0.073,0.02597 -0.993076,-0.825857 -2.04462,-1.892957 z"
       id="path4696"
       inkscape:connector-curvature="0"
       transform="matrix(0.26458333,0,0,0.26458333,27.175072,244.08676)" />
    <path
       style="fill:#d7f4ee;stroke-width:0.17857143;stroke:none;stroke-opacity:1"
       d="m 68.974036,73.351264 c -8.406367,-8.408289 -7.774994,-7.149091 -4.946071,-9.864359 l 1.772623,-1.701407 7.339616,7.339617 7.339616,7.339616 -2.049064,2.054894 c -1.126986,1.130193 -2.090927,2.054895 -2.142091,2.054895 -0.05116,0 -3.342747,-3.250466 -7.314629,-7.223256 z"
       id="path4698"
       inkscape:connector-curvature="0"
       transform="matrix(0.26458333,0,0,0.26458333,27.175072,244.08676)" />
    <path
       style="fill:#d7f4ee;stroke-width:0.17857143;stroke:none;stroke-opacity:1"
       d="M 91.219906,22.967888 C 89.039386,22.325372 87.642632,21.704683 85.929436,20.616911 81.055077,17.521999 77.555529,12.295824 76.544317,6.6013051 L 76.425404,5.9316623 h 8.769873 8.769874 v 8.8392857 c 0,8.30267 -0.01897,8.838752 -0.3125,8.83049 -0.171875,-0.0048 -1.266611,-0.289935 -2.432745,-0.63355 z"
       id="path4700"
       inkscape:connector-curvature="0"
       transform="matrix(0.26458333,0,0,0.26458333,27.175072,244.08676)" />
    <path
       style="fill:#d7f4ee;stroke-width:0.17857143;stroke:none;stroke-opacity:1"
       d="m 5.7508647,85.395948 c 0,-7.555671 0.035617,-8.75 0.2609419,-8.75 0.7689452,0 3.454639,0.794032 5.0962014,1.506704 6.329129,2.747744 10.967211,8.562832 12.239696,15.345762 l 0.121479,0.647534 H 14.610024 5.7508647 Z"
       id="path4702"
       inkscape:connector-curvature="0"
       transform="matrix(0.26458333,0,0,0.26458333,27.175072,244.08676)" />
    <path
       style="fill:#d7f4ee;stroke-width:0.17857143;stroke:none;stroke-opacity:1"
       d="m 76.46779,93.922734 c 0.01349,-1.140913 1.546524,-5.347678 2.610167,-7.162509 1.955439,-3.336449 5.75824,-6.83858 9.027084,-8.313354 1.469841,-0.663134 4.1395,-1.55896 5.101181,-1.711743 l 0.758929,-0.120572 v 8.765696 8.765696 h -8.75 c -6.882361,0 -8.749437,-0.04764 -8.747361,-0.223214 z"
       id="path4704"
       inkscape:connector-curvature="0"
       transform="matrix(0.26458333,0,0,0.26458333,27.175072,244.08676)" />
  </g>
</svg>
